<?xml version="1.0" encoding="UTF-8"?>
<svg id="Layer_2" data-name="Layer 2" xmlns="http://www.w3.org/2000/svg" viewBox="0 0 1318.57 265.63">
  <defs>
    <style>
      .cls-1 {
        fill: #fff;
      }
    </style>
  </defs>
  <g id="Layer_1-2" data-name="Layer 1">
    <g>
      <path class="cls-1" d="M626.07,197.65l-8.25,39.25c-3.39,4.11-3.99,12.01-9.46,13.54-2.66.74-7.69-.56-9.34.65-3.76,2.76.55,12.94-9.5,14.5l-72.53-.36c-4.29-1.19-4.92-8.88-6.39-10.58-1.04-1.19-3.49-.91-5.07-1.93-3.49-2.26-1.4-8.28-7.3-8.19l-.15-9.87c-6.59,7.62-9.37,18.47-21.88,16.12-2.4,5.59-.75,12.69-7.82,14.67l-71.73.15c-6.31-.18-7-9.44-9.08-11.92-.94-1.12-2.91-1.08-4.02-1.98-.34-.28-5.28-6.36-5.51-6.74-2.13-3.56.66-8.27-2.45-11.28-1.35.05-3.09,14.23-10.44,16.54-1.78.56-5.54.19-5.97.54-1.45,1.19-2.24,14.56-7.84,14.65l-77.69.19c-6.05-.49-5.48-7.47-8.08-10.92-1.84-2.44-7.8-5.72-10.32-9.63-3.22-4.99-.88-10.31-5.69-14.39-1.4-.34-2.54,2.15-4.23,2.75-2.52.9-8.13.61-9.77,2.23-1.39,1.37-3.35,8.99-5.46,11.54-3.92,4.74-8.79,2.48-11.06,3.94-3.27,2.11-.35,13.02-8.5,14.5l-178.51-.39c-4.48-1.48-4.39-7.42-6.44-9.56-3.06-3.2-7.92-.23-6.93-10.07-1.03-1.5-8.48-.6-11.02-6.98-1.53-3.85.34-8.61-.75-12.25-.5-1.67-3.42-3.45-4.63-5.37-3.69-5.89-1.94-11.15-.87-17.54,1.87-11.14,7.03-37.82,14.77-45.23,2.21-2.12,4.89-2.94,7.93-2.57-.32-2.97.52-6.65-.02-9.48-1.21-6.38-7.39-5.21-5.87-18.92,6.79-24.61,10.97-49.93,17.37-74.63.66-2.53,3.1-5.6,3.25-6.62.36-2.33-2.34-4.7.72-7.42,3.73-3.31,11.43-.85,13.61-2.38,3.94-13.56,3.27-22.22,20.9-19.6,1.14-4.57,2.56-13.89,7.1-15.4l177.26-.32c5.17,1,5,9.02,5.8,9.65.92.73,3.84-1.05,6.37,2.13,2.8,3.52.46,7.28.95,8.05,2.42,2.35,6.46,1.25,8.83,1.95.28.08,4.08,3.76,4.24,4.01,1.72,2.64-1.25,8.21-1.26,11.36,2.9,1.4,7.64,11.47,9.26,11.68,1.02.13,1.88.24,2.6-.69,1.78-2.32,3.33-8.48,5.99-10.79,3.25-2.83,8.04-2.36,11.96-3.04,1.22-5.35,3.71-7.65,6.38-11.62.72-1.07.39-2.86,1.6-4.4,3.48-4.41,12.63-1.57,13.86-2.65,1.73-4.82,4.4-14.46,9.82-15.67l137.73-.15c6.43,1.01,4.73,6.17,6.82,8.68.91,1.09,5.06,1.59,6.23,4.27,1,2.29-.19,6.4,1.45,7.55,2.24,1.16,5.27-.11,7.36.42.35.09,5.08,4.68,5.24,5,1.68,3.27-1.9,9.54-1.04,11.06,2.25,3.95,13.45,4.03,15.26,10.7.83,3.05-.91,7.44,3.74,8.26l7.53-30.24c3.27-1.5,2.51-4.07,3.95-6.31,3.36-5.24,8.67-3,13.94-3.56,2.07-5.91,2.94-15.59,10.58-15.92,23.32,1.54,49.04-1.97,72.07-.02,9.28.79,6.23,7.58,9.73,9.77.94.59,2.72.21,4.27,1.21,6.07,3.9,3.34,8.51,4.33,9.62,1.77,1.97,6.61,1.63,9.62,6.52,2.07,3.36-.38,5.09.99,7.92.83,1.71,4.68,2.91,6.18,4.35l5.85,9.7c4.47-.07,8.46-11.18,12.29-13.01,2.86-1.37,7.31-.4,9.22-1.53,3.7-2.17,8.21-22.52,18.87-18.63.87-4.24,5.65-13.43,9.54-14.95l77.66-.5c4.04,1.12,4.32,8.76,5.09,9.4.54.45,2.87.02,4.91,1.58,3.99,3.06,1.41,9.32,7.42,11.57,4.18-7.64,8.25-7.48,16.4-7.08,1.85-6.16,2.43-13.96,9.65-15.85l176.9.04c5.09-.18,5.15,6.58,7.08,8.88,1.22,1.45,4.1,1.24,5.93,4.07s1.05,5,2.46,7.54c5.25.06,11.12.65,12.07,7.01.99,6.65-4.77,9.28,6.03,13.89,2.5.89.94,8.52,3.46,7.54.59-.23,3.29-8.7,4.07-9.95,3.48-5.63,11.86-3.84,17.44-4.06-.61-6.11,3.77-10.77,5.02-16.48,4.83-3.12,9.39-2.55,14.89-2.62l3.61-12.89,5.22-2.78,161.33.21c3.72.93,3.65,6.13,5.96,8.04s5.22.78,7.47,3.55c2.59,3.19-.47,6.03.92,8.04,1.94,1.77,4.78.43,6.95,1.1.27.08,3.96,3.59,4.09,3.84,1.96,3.79-.82,10.36,0,11.99,1.14,2.29,6.31,2.96,8.42,5.64,2.45,3.12,1.48,6.35,2.68,9.32,2.14,5.29,11.39,10.07,8.35,18.44-11.9,46.44-19.45,94.23-31.38,140.62-3.16,12.3-3.36,24.37-19.53,23.47-2.23,1.3-1.84,7.33-3.18,9.86-.17.31-4.45,5.02-4.77,5.17-2.86,1.4-10.92-.28-11.93.59-1.7,4.87-1.2,12.67-7.05,14.45l-172.34.23c-3.07-.69-5.6-4.43-6.94-7.08-.74-1.47-.47-3.81-.96-4.51-.26-.37-6.12-2.26-8.08-4.16-.24-.24-4.04-4.77-4.22-5.05-1.47-2.26.11-7.17-.62-9.88-2.1-.47-7.33-2.04-8.63-3.43-.38-.41-.12-1.74-.58-2.31-1.98-2.44-4.06-2.61-4.18-7.38-1.53,11.07-7.96,13.51-18.41,13.11-1.68,12.65-5.52,17.32-18.98,16.02l-3.03,12.23-7.7,2.55-177.87.08c-3.29-.63-6.52-6.28-7.95-9.09-.59-1.16-.33-3.21-.75-3.7s-4.19-.71-5.78-1.73c-2.01-1.3-2.14-4.39-4.54-4.47-2.61,4.57-8.7,4.08-13.39,4.14-2,4.77-1.85,13.34-7.83,14.66l-72.72.15c-6.08-.18-6.5-9.06-8.85-11.65-1.58-1.74-8.22-5.55-10.41-8.59-1.67-2.33-.86-6.99-1.75-9.76-.81-2.52-4.64-5.05-5.31-7.68-2.06-7.99,3.35-21.99,4.76-30.26h-47ZM241.07,109.65h19.5c6.29,0,6.36-10.15,8.02-12.98.61-1.03,2.67-1.42,3.5-2.5,6.03-7.92,6.73-28.17,10.04-38.01-2.77-9.8-13.66-12.27-8.06-24.5-1.72.37-7.88-1.93-8.6-2.98-.93-1.36,2.7-4.55-3.49-8.49-1.04-.66-2.89-.23-3.69-.76-.76-.5-3.17-8.03-5.23-9.27l-167.04-.05-5.06,15.44c-3.78.72-13.05-1.4-15.36,2.14-2.04,3.11-3.17,16.31-4.78,17.73l-13.66,1.33-19.16,84.39c.18,4.68,5.52,8.28,6.6,12.48.86,3.34-.25,7.54.96,10.04,1.71,3.54,10.64,5.64,14.36,5.14l1.14,4.85-25.47,1.03c-3.04.57-6.49,5.75-7.48,8.52-1.59,4.45-8.67,38.02-7.86,40.73.69,2.3,5.93,7.21,6.63,10.45s-1.28,6.04-.35,8.23c1.83,4.28,6.83,2.28,8.38,3.2,1.28.76,2.95,9.13,3.37,9.63s3.12.39,4.82,2.68,1.36,5.5,3.37,7.62l166.14.95c8.9,1.27,7.7-10.84,10.92-14.08,1.63-1.64,5.16-.68,7.59-1.41,5.13-1.55,6.65-10.9,8.9-15.1l11.76-2.73c8.65-25.7,12.45-52.78,18.34-79.21-.47-6.96-8.35-10.61-8.83-13.13-1.05-5.57,5.51-11.96-4.19-14.93-2.02-.62-4-.52-6.06-.45v-6.01ZM499.07,31.67c-2.19.07-6.78-2.88-8.03-4.49-1.35-1.73-1.32-4.27-2.93-6.07-1.51-1.69-4.04-1.92-5.5-3.5-2.06-2.23-2.11-7.39-6.06-7.94l-122.98-.02c-8.49-.02-9.06,9.7-11.64,15.86-8.66-.11-12.72-.7-17.03,7.47-1.2,2.28-2.82,9.27-3.83,10.17-4.21,3.72-10.08-2.27-16.4,8.6-1.02,1.75-1.2,4.88-2.09,5.91-1,1.16-3.51,1.03-5.07,1.93-4.53,2.62-5.45,6.42-6.93,11.07l-33.17,149.68c.25,4.57,3.78,8.29,5.2,12.28s-.62,7.45,4.1,10.89c1.81,1.32,5.33,1.7,6.09,2.42,1.4,1.31,2.96,9.42,4.23,10.27l70.35-.73c3.61-1.59,4.18-11.11,5.93-12.58.83-.7,4.67-1.04,6.47-2.03,8.22-4.5,8.15-28.7,11.25-30.74l12.04-.46c.49,3.92-1.39,7.59-1.06,11.5s3.23,6.2,3.83,9.23c.89,4.47-.89,10.12,3.67,13.33,1.71,1.21,3.78.71,5.61,2.39,2.85,2.61,2.25,9.35,5.64,10.36l60.56-.05c6.52.58,7.08-11.71,9.72-13.28,1.78-1.05,5.03-.18,7.32-.68,5.8-1.28,9.64-11.82,11.04-16.96,8.82-32.15,14.55-68.18,21.95-101.05,3.94-17.49,8.63-34.84,12.59-52.33-.12-3.85-7.88-9.25-9.34-13.5-1.17-3.41.25-6.54-2.88-9.62-3.5-3.43-10.07-2.48-11.74-4-4.73-4.31-.41-12.83-.91-13.33ZM630.57,188.65h53.5c.43,8.44-7.75,27.03-6.45,34.13.55,3.02,5.29,7.54,6.2,10.62,1.25,4.21-.81,7.25,4.28,10.72,1.66,1.13,3.82,1.05,5.03,2.23,2.44,2.37,2.21,9.08,5.63,10.11l62.36-.26c5.12-1.6,6.32-10.13,8.09-14.41,16.35,2.82,16.26-10.64,20.36-22.15.69,2.99,4.63,6.36,5.26,8.75.86,3.28-.61,7.25.76,10.24.25.56,4.96,5.26,5.51,5.51,1.64.73,3.68.14,4.75.74,2.71,1.51,2.69,11.41,7.75,11.75l167.91-.03c8.16-1.28,6.73-11.6,9.96-14.04,1.92-1.44,5.12-.69,7.63-1.37,6.2-1.69,8.25-9.99,10.11-15.39,11.08.96,14.62-2.79,17.81-12.69,5.71-17.76,7.49-38.88,13.05-56.98,1.33-9.28-11.89-12.39-7.95-22.42,6.43.43,8.62-.26,11.98-5.52,1.01-1.58,1.4-4.49,2.2-5.3,1.31-1.34,6.14-1.92,7.35-.27,1.09,1.49-3.59,15.71-4.28,18.84-4.3,19.43-7.79,39.07-12.1,58.49.88,3.95,5.43,8.2,6.34,11.69s-.25,7.3.99,10.01c2.27,5.01,7.97,4.28,10,6,4.12,3.51.11,11.34,5.96,15.04,1.83,1.16,3.88.81,5.59,2.41,2.37,2.2,3.64,9.94,5.92,11.08l160.3.27c7.67-1.71,6.13-15.32,12.23-15.79,1.48-.11,2.97.98,4.75.8,7.82-.79,8.42-9.58,10.87-15.66,11.12.53,12.78-.65,15.8-10.69l32.14-145.95c-.25-4.65-6.76-7.76-8.36-12.81-1.15-3.61,1.82-5.29-2.28-9.64s-9.58-1.14-9.54-9.56c0-1.44,1.3-5.3,1.1-5.49-.18-.16-1.85.33-2.68-.26-3.62-2.56-6.13-9.68-8.33-11.23s-4.78-1.06-5.76-1.74c-1.19-.82-2.36-7.75-4.88-8.62l-149.63.05c-5.57,3.12-5.26,10.22-7.65,15.35-4.62,1.39-11.15-1.25-14.74,2.75-2.55,2.84-4.71,12.65-5.36,16.65-4.26.2-10.22-.33-14.19,1.31-6.93,2.85-8.86,24.8-11.22,31.78l-5.54.95c5.37-11.41-4.99-15.09-7.46-22.04-1.73-4.86,1.66-9.07-4.82-12.2-2.89-1.4-5.38.35-6.28-4.77-.61-3.43,1.11-4.68,1.46-7.85-1.39-1.23-8.1-4.72-8.65-5.39-1.09-1.33-.4-4.2-3.27-6.24-1.56-1.11-3.87-1.08-4.73-1.77-1.48-1.2-2.37-7.71-4.92-8.58l-166.6.12c-6.93.59-5.71,10.7-8.9,15.55l-13.6,1.4-6.73,22.75c-.61-.04-6.74-8.87-7.05-9.93-.79-2.75.09-5.63-.97-8.03-.99-2.25-5.63-4.35-6.21-5.28-.84-1.35-.16-3.73-1.56-5.46-1.14-1.41-4.38-1.65-5.76-2.99-1.65-1.61-2.85-6.76-4.95-7.78l-65.99.03c-4.93,2.07-7.03,13.83-9,15s-5.09,0-7.34.66c-3.67,1.07-8.37,13.72-8.78,17.71-10.32-1.65-18.72,4.7-19.99,15.01-5.02.02-10-.31-13.41,4.05l-9-5.89c3.75-9.43-5.84-9.69-8.41-13.66-2.11-3.27-.21-7.27-1.61-10.39-1.5-3.34-6.55-4.47-7.94-5.98-.4-.43-.08-4.64-2.59-6.49-1.65-1.22-4.59-.91-5.7-1.8-1.44-1.15-2.36-7.71-4.91-8.59l-64.63.05c-6.05,1.35-7.07,10.53-7.76,15.74-4.96.58-12-1.76-15.39,3.11-2.55,3.68-5.71,18.61-7.08,23.92-13.79,53.75-24.08,108.54-36.38,162.65-1.66,5.91,4.35,10.4,5.46,15.28.71,3.11-.12,6.24.97,9.03,2.25,5.76,6.84,4.18,8.98,6.02,2.27,1.95,2.86,9.83,6.17,10.83l61.36-.26c5.31-1.66,6.01-9.85,7.88-14.12,8.08-.49,12.1-.48,15.57-8.43l12.99-56.01c1.08-1.57,1.61-.57,2.51.51,1.71,2.04,4.88,10.06,6.5,10.5ZM270.07,117.66c-9.1-2.42-9.94,9.28-3.49,12.99l3.49-12.99Z"/>
      <path d="M630.57,188.65c-1.62-.44-4.79-8.46-6.5-10.5-.9-1.08-1.43-2.08-2.51-.51l-12.99,56.01c-3.47,7.95-7.49,7.94-15.57,8.43-1.88,4.27-2.58,12.45-7.88,14.12l-61.36.26c-3.31-1-3.9-8.87-6.17-10.83-2.14-1.84-6.73-.26-8.98-6.02-1.09-2.79-.26-5.93-.97-9.03-1.11-4.88-7.12-9.37-5.46-15.28,12.3-54.11,22.6-108.91,36.38-162.65,1.36-5.32,4.52-20.25,7.08-23.92,3.38-4.87,10.43-2.54,15.39-3.11.69-5.21,1.71-14.39,7.76-15.74l64.63-.05c2.55.88,3.47,7.44,4.91,8.59,1.11.89,4.04.58,5.7,1.8,2.52,1.85,2.19,6.06,2.59,6.49,1.39,1.51,6.44,2.63,7.94,5.98,1.4,3.12-.5,7.11,1.61,10.39,2.56,3.97,12.15,4.23,8.41,13.66l9,5.89c3.41-4.37,8.39-4.03,13.41-4.05,1.27-10.31,9.67-16.66,19.99-15.01.41-3.99,5.11-16.64,8.78-17.71,2.25-.66,5.41.49,7.34-.66s4.07-12.94,9-15l65.99-.03c2.1,1.02,3.3,6.18,4.95,7.78,1.38,1.35,4.62,1.59,5.76,2.99,1.4,1.73.72,4.11,1.56,5.46.58.93,5.22,3.04,6.21,5.28,1.06,2.4.17,5.28.97,8.03.31,1.06,6.44,9.9,7.05,9.93l6.73-22.75,13.6-1.4c3.19-4.85,1.97-14.96,8.9-15.55l166.6-.12c2.55.88,3.44,7.38,4.92,8.58.85.69,3.17.66,4.73,1.77,2.87,2.04,2.17,4.91,3.27,6.24.56.67,7.26,4.16,8.65,5.39-.36,3.17-2.07,4.43-1.46,7.85.91,5.12,3.39,3.37,6.28,4.77,6.48,3.13,3.09,7.34,4.82,12.2,2.47,6.95,12.83,10.62,7.46,22.04l5.54-.95c2.36-6.98,4.29-28.93,11.22-31.78,3.97-1.64,9.93-1.11,14.19-1.31.64-4,2.8-13.81,5.36-16.65,3.59-4,10.13-1.36,14.74-2.75,2.38-5.13,2.08-12.23,7.65-15.35l149.63-.05c2.53.87,3.69,7.8,4.88,8.62.99.68,3.61.23,5.76,1.74s4.71,8.67,8.33,11.23c.83.59,2.5.1,2.68.26.21.19-1.09,4.05-1.1,5.49-.04,8.42,5.59,5.37,9.54,9.56s1.13,6.02,2.28,9.64c1.6,5.05,8.11,8.16,8.36,12.81l-32.14,145.95c-3.02,10.05-4.68,11.22-15.8,10.69-2.45,6.08-3.05,14.87-10.87,15.66-1.78.18-3.27-.92-4.75-.8-6.11.47-4.56,14.08-12.23,15.79l-160.3-.27c-2.28-1.14-3.55-8.87-5.92-11.08-1.71-1.59-3.76-1.25-5.59-2.41-5.85-3.7-1.83-11.53-5.96-15.04-2.02-1.72-7.72-.99-10-6-1.23-2.72-.11-6.62-.99-10.01s-5.46-7.74-6.34-11.69c4.3-19.42,7.8-39.06,12.1-58.49.69-3.13,5.38-17.34,4.28-18.84-1.21-1.65-6.04-1.07-7.35.27-.8.82-1.19,3.72-2.2,5.3-3.36,5.26-5.55,5.95-11.98,5.52-3.94,10.03,9.28,13.14,7.95,22.42-5.56,18.1-7.34,39.22-13.05,56.98-3.19,9.91-6.73,13.66-17.81,12.69-1.86,5.41-3.91,13.7-10.11,15.39-2.51.69-5.71-.07-7.63,1.37-3.23,2.43-1.81,12.76-9.96,14.04l-167.91.03c-5.06-.33-5.04-10.23-7.75-11.75-1.07-.6-3.11,0-4.75-.74-.55-.25-5.25-4.95-5.51-5.51-1.37-3,.1-6.96-.76-10.24-.63-2.39-4.57-5.76-5.26-8.75-4.1,11.51-4.01,24.97-20.36,22.15-1.77,4.28-2.97,12.81-8.09,14.41l-62.36.26c-3.42-1.03-3.19-7.73-5.63-10.11-1.21-1.18-3.37-1.09-5.03-2.23-5.09-3.47-3.03-6.51-4.28-10.72-.92-3.08-5.65-7.61-6.2-10.62-1.3-7.1,6.88-25.69,6.45-34.13h-53.5ZM514.07,213.65h15l-4,14h42.5c3.88-3.39,3.84-9.3,5.63-13.87,3.52-.96,10.7,1.59,12.71-1.79l19.63-86.37,13.53-.97-2.57,15.03,14.56.98-4,14.99h47.5l4.63-14.87,14.38-1.11,3.48-15.02h15l-20.76,88.54c.48,2.72,11.17.98,13.76,1.47l-3.6,10.92,1.1,2.07h42c3.87-3.25,3.18-9.32,4.6-13.9l13.91-1.59,38.57-174.54-13.57-.98,3-14.99h-53.5l-4.6,15.9-15.41,1.09-4.43,16.57-14.13.87-4.56,13.44-14.33.17-3.04,14.96h-14l3-15h-16l1.58-14.06-13.59-.94,3-17h-17l3-14.99c-7.13-.7-53.28-2.45-55.86.13l-3.27,14.74-13.73.27-40.14,175.86ZM1014.07,21.65h-157l-3.1,14.9c-1.82,1.55-13.53-2.65-14.44,3.06l-37.46,174.04h14l-2.83,12.53,2.33,1.47,151.84-1.17c2.78-.93,4.05-11.71,4.71-14.79l13.83-.17,4.09-14.41,13.56-1.44,12.48-57.02h-15l7.01-31.99,15.86-.14,12.17-51.37c.2-2.08-.14-1.31-1.5-1.51-2.06-.31-11.07.43-11.53,0l3-16.99h-15l3-15ZM1261.07,21.65h-138.5c-4.91,0-5.19,13.25-7.44,16.56l-14.96.54-5.08,17.41-13.92.58-31.1,139.9h14l-3,15h15l-3.6,12.93,1.1,2.07h144c3.55-3.92,3.21-10.01,4.6-14.9l14.43-1.07,3.57-13.93,13.81-.2,30.1-142.9h-12s2.58-16.05,2.58-16.05l-14.59-.95,1-15Z"/>
      <path d="M241.07,109.65v6.01c2.05-.07,4.03-.17,6.05.45,9.7,2.97,3.13,9.36,4.19,14.93.48,2.52,8.36,6.17,8.83,13.13-5.9,26.43-9.69,53.51-18.34,79.21l-11.76,2.73c-2.25,4.2-3.76,13.55-8.9,15.1-2.43.74-5.96-.23-7.59,1.41-3.22,3.23-2.02,15.35-10.92,14.08l-166.14-.95c-2.01-2.12-1.7-5.36-3.37-7.62s-4.39-2.16-4.82-2.68-2.08-8.87-3.37-9.63c-1.55-.92-6.55,1.08-8.38-3.2-.93-2.18,1.04-5.02.35-8.23s-5.94-8.15-6.63-10.45c-.81-2.71,6.27-36.28,7.86-40.73.99-2.78,4.43-7.95,7.48-8.52l25.47-1.03-1.14-4.85c-3.72.5-12.65-1.6-14.36-5.14-1.21-2.5-.1-6.7-.96-10.04-1.08-4.2-6.42-7.8-6.6-12.48l19.16-84.39,13.66-1.33c1.6-1.42,2.74-14.62,4.78-17.73,2.31-3.54,11.59-1.42,15.36-2.14l5.06-15.44,167.04.05c2.07,1.25,4.48,8.77,5.23,9.27.8.53,2.65.1,3.69.76,6.19,3.94,2.56,7.13,3.49,8.49.72,1.05,6.88,3.35,8.6,2.98-5.6,12.24,5.29,14.7,8.06,24.5-3.31,9.85-4.01,30.09-10.04,38.01-.83,1.09-2.89,1.47-3.5,2.5-1.67,2.83-1.73,12.98-8.02,12.98h-19.5ZM260.07,39.65h-15.5c-3.87,0,2.98-14.44,1.08-17.06l-2.08-.93-152.36,1.13-4.1,14.4-11.6,1.4-2.87,17.13c-1.85,2.74-12.43-1.24-14.41,2.59l-14.16,68.34h14l-2,15,103,1.01-2.99,11.99h12.99s-3.62,9.88-3.62,9.88l-11.43.57-3.52,12.62-121.42-.06c-.28,9.39-3.52,19.23-4.01,28.54-.11,2.03-.38,4.2,1.52,5.46h14.5l-4,16h152.5c3.96,0,4.78-10.99,5.6-13.9,15.04,1.89,12.56-3.86,16.37-15.13l9.9-1.1,1.48-1.52,15.97-68.12c.62-1.05-.6-3.22-1.32-3.22h-17.5l2.95-17.6-1.6-2.25-93.66-.17c-1.82-3.9-7.77-1.27-11.69-1.98,2.04-10.48-.28-19.56,13.86-17.14l3.72-13.92,116.72-1.14c1.41-.42,1.88-1.32,2.44-2.56,3.34-7.43,3.53-20.35,7.25-28.25Z"/>
      <path d="M499.07,31.67c.5.49-3.82,9.01.91,13.33,1.67,1.52,8.24.57,11.74,4,3.13,3.07,1.71,6.21,2.88,9.62,1.46,4.25,9.23,9.65,9.34,13.5-3.96,17.49-8.65,34.84-12.59,52.33-7.4,32.87-13.14,68.89-21.95,101.05-1.41,5.13-5.25,15.68-11.04,16.96-2.28.5-5.54-.37-7.32.68-2.64,1.57-3.2,13.86-9.72,13.28l-60.56.05c-3.39-1.02-2.79-7.76-5.64-10.36-1.83-1.68-3.9-1.18-5.61-2.39-4.56-3.21-2.78-8.86-3.67-13.33-.6-3.02-3.5-5.39-3.83-9.23s1.55-7.58,1.06-11.5l-12.04.46c-3.1,2.04-3.03,26.24-11.25,30.74-1.81.99-5.64,1.33-6.47,2.03-1.74,1.47-2.31,10.99-5.93,12.58l-70.35.73c-1.27-.85-2.83-8.96-4.23-10.27-.76-.72-4.28-1.1-6.09-2.42-4.73-3.44-2.71-6.99-4.1-10.89s-4.95-7.71-5.2-12.28l33.17-149.68c1.49-4.65,2.4-8.45,6.93-11.07,1.56-.9,4.07-.77,5.07-1.93.89-1.03,1.07-4.16,2.09-5.91,6.32-10.86,12.2-4.88,16.4-8.6,1.01-.89,2.63-7.89,3.83-10.17,4.31-8.17,8.37-7.59,17.03-7.47,2.58-6.15,3.15-15.88,11.64-15.86l122.98.02c3.95.54,4.01,5.71,6.06,7.94,1.46,1.58,3.99,1.81,5.5,3.5,1.61,1.81,1.58,4.34,2.93,6.07,1.25,1.61,5.84,4.56,8.03,4.49ZM468.07,36.65c-.54-4,2.49-9.49,2.62-12.93.05-1.23-.17-1.3-1.12-2.07h-115.5l-3.93,15.57-15.93.56-5.07,17.43-14.93.57-4.22,14.77-7.43,1.07-31.55,142.4c.33,2.12,10.08,1.62,12.07,1.63l-2.99,12.99,49.36-1.9,3.58-11.65,8.17-1.02,10.39-42.42h52.5l-10.01,42.49,12.02.52-3,13h44l4.13-12.87c2.5-1.62,12.27,2.64,13.39-3.11l34.48-157.02h-19c-.21-4.9,3.47-11.73,3.62-15.94.04-1.23-.17-1.3-1.12-2.06h-14.5Z"/>
      <path d="M270.07,117.66l-3.49,12.99c-6.44-3.7-5.6-15.4,3.49-12.99Z"/>
      <path class="cls-1" d="M514.07,213.65l40.14-175.86,13.73-.27,3.27-14.74c2.58-2.58,48.73-.83,55.86-.13l-3,14.99h17l-3,17,13.59.94-1.58,14.06h16l-3,15h14l3.04-14.96,14.33-.17,4.56-13.44,14.13-.87,4.43-16.57,15.41-1.09,4.6-15.9h53.5l-3,14.99,13.57.98-38.57,174.54-13.91,1.59c-1.42,4.57-.73,10.64-4.6,13.9h-42l-1.1-2.07,3.6-10.92c-2.6-.49-13.28,1.25-13.76-1.47l20.76-88.54h-15l-3.48,15.02-14.38,1.11-4.63,14.87h-47.5l4-14.99-14.56-.98,2.57-15.03-13.53.97-19.63,86.37c-2.01,3.38-9.19.83-12.71,1.79-1.79,4.57-1.75,10.48-5.63,13.87h-42.5l4-14h-15Z"/>
      <path class="cls-1" d="M1014.07,21.65l-3,15h15l-3,16.99c.46.43,9.47-.31,11.53,0,1.37.2,1.7-.57,1.5,1.51l-12.17,51.37-15.86.14-7.01,31.99h15l-12.48,57.02-13.56,1.44-4.09,14.41-13.83.17c-.65,3.08-1.93,13.86-4.71,14.79l-151.84,1.17-2.33-1.47,2.83-12.53h-14l37.46-174.04c.91-5.72,12.62-1.51,14.44-3.06l3.1-14.9h157ZM962.07,63.65h-54l-9,41h54l9-41ZM944.07,141.65h-54l-9,42h54l9-42Z"/>
      <path class="cls-1" d="M1261.07,21.65l-1,15,14.59.95-2.58,16.04h12s-30.1,142.91-30.1,142.91l-13.81.2-3.57,13.93-14.43,1.07c-1.39,4.88-1.04,10.97-4.6,14.9h-144l-1.1-2.07,3.6-12.93h-15l3-15h-14l31.1-139.9,13.92-.58,5.08-17.41,14.96-.54c2.25-3.31,2.53-16.56,7.44-16.56h138.5ZM1196.57,69.65h-33l-4.64,14.86-13.82.18-18.05,84.96h12.01s-3,14-3,14h36l3.1-13.9,14.02-.68,18.9-83.91-13.02-.52c-1.03-1.02,2.54-10.96,2.62-12.93.05-1.23-.17-1.3-1.12-2.07Z"/>
      <path class="cls-1" d="M260.07,39.65c-3.72,7.9-3.91,20.82-7.25,28.25-.56,1.24-1.03,2.14-2.44,2.56l-116.72,1.14-3.72,13.92c-14.14-2.42-11.82,6.66-13.86,17.14,3.93.71,9.87-1.92,11.69,1.98l93.66.17,1.6,2.25-2.95,17.6h17.5c.72,0,1.94,2.17,1.32,3.22l-15.97,68.12-1.48,1.52-9.9,1.1c-3.81,11.27-1.33,17.03-16.37,15.13-.82,2.9-1.64,13.9-5.6,13.9H37.07l4-16h-14.5c-1.9-1.27-1.63-3.43-1.52-5.46.5-9.31,3.74-19.15,4.01-28.54l121.42.06,3.52-12.62,11.43-.57,3.62-9.86h-12.99s2.99-12,2.99-12l-103-1.01,2-15h-14l14.16-68.34c1.98-3.83,12.56.15,14.41-2.59l2.87-17.13,11.6-1.4,4.1-14.4,152.36-1.13,2.08.93c1.9,2.62-4.95,17.06-1.08,17.06h15.5Z"/>
      <path class="cls-1" d="M468.07,36.65h14.5c.95.77,1.16.83,1.12,2.06-.15,4.21-3.83,11.04-3.62,15.94h19l-34.48,157.02c-1.11,5.75-10.88,1.49-13.39,3.11l-4.13,12.87h-44l3-13-12.02-.52,10.01-42.49h-52.5l-10.39,42.42-8.17,1.02-3.58,11.65-49.36,1.9,2.99-12.99c-1.98,0-11.74.49-12.07-1.63l31.55-142.4,7.43-1.07,4.22-14.77,14.93-.57,5.07-17.43,15.93-.56,3.93-15.57h115.5c.95.77,1.17.83,1.12,2.07-.13,3.45-3.16,8.93-2.62,12.93ZM418.07,70.65h-31l-3.94,13.56-13.01.49-7.65,35.89,1.1,2.06h53.5l8.02-37.49-10.01-.52,3-13.99Z"/>
      <polygon points="944.07 141.65 935.07 183.65 881.07 183.65 890.07 141.65 944.07 141.65"/>
      <polygon points="962.07 63.65 953.07 104.65 899.07 104.65 908.07 63.65 962.07 63.65"/>
      <path d="M1196.57,69.65c.95.77,1.17.83,1.12,2.07-.08,1.97-3.65,11.91-2.62,12.93l13.02.52-18.9,83.91-14.02.68-3.1,13.9h-36l3-14h-12.01s18.05-84.95,18.05-84.95l13.82-.18,4.64-14.86h33Z"/>
      <polygon points="418.07 70.65 415.07 84.64 425.08 85.16 417.07 122.65 363.57 122.65 362.46 120.59 370.12 84.7 383.13 84.21 387.07 70.65 418.07 70.65"/>
    </g>
  </g>
</svg>